<?xml version="1.0" encoding="UTF-8"?>
<svg xmlns="http://www.w3.org/2000/svg" viewBox="0 0 2912.3 2530.2">
  <defs>
    <style>
      .cls-1 {
        stroke-width: 50px;
      }

      .cls-1, .cls-2, .cls-3, .cls-4, .cls-5 {
        stroke: #fff;
        stroke-miterlimit: 10;
      }

      .cls-1, .cls-4 {
        fill: none;
      }

      .cls-2, .cls-6, .cls-5 {
        fill: #fff;
      }

      .cls-3 {
        fill: #ffb600;
      }

      .cls-7 {
        fill: #1e1e1e;
      }

      .cls-8 {
        fill: #0f0f0f;
      }

      .cls-4 {
        stroke-width: 82px;
      }

      .cls-5 {
        opacity: .7;
      }

      .cls-9 {
        fill: #070707;
      }
    </style>
  </defs>
  <g id="Camada_1" data-name="Camada 1">
    <g>
      <path class="cls-7" d="M2181.3,1174.5c-6.1,0-12.1-.7-17.8-2.1-19.7-4.9-38.1-18.5-54.7-40.3-14.5-19.2-27.3-44.3-37.9-74.7-26.8-76.5-36.6-175.4-27-271.3,8-79.5,33.2-194.8,108.2-292.7l1.3-1.7c32.6-42.5,108.9-142.1,217.2-145,1.6,0,3.2,0,4.8,0,80,0,144.4,52.6,196.2,95,31.5,25.7,61.2,50,80.5,50s5.8-.7,8.5-2.1c19.9-10.6,25.5-56.2,24.4-82.4-2.1-48.1-33-81.8-43.1-92.8-24.8-27-50.2-38.2-72.6-48.1-24.4-10.7-47.4-20.9-55.4-48.2-10-34.1,10.9-73.9,63.8-121.6l7.4-6.7,9.9,1.7c61.8,10.9,118.5,36.9,163.9,75,48.5,40.8,87.1,96.8,108.7,157.8,24.5,69.2,25.4,139.6,2.6,203.5-14.2,39.8-38.3,80.5-66.1,111.7-36.9,41.4-79.5,65.4-123.2,69.3-4.3.4-8.7.6-13.1.6-59.2,0-105.9-35.8-147.1-67.5-30.9-23.8-60.2-46.2-86.5-46.2s-9.2.7-13.8,2.1c-34.4,10.5-51.6,58-65.5,96.1l-.5,1.5c-25.6,70.5-16.5,126.4-7.7,180.4,8.7,53.3,17.7,108.4-10.6,169.5-14.5,31.3-38.2,63-65,87-21.5,19.3-54.6,42.3-90,42.3Z"/>
      <path class="cls-6" d="M2591.6,111.5c34.8,6.2,96.9,22.3,154.3,70.5,87.6,73.6,150.9,210.7,105.2,338.7-23,64.3-85.4,159.7-171.9,167.5-3.8.3-7.5.5-11.2.5-97.2,0-161.6-113.7-233.5-113.7s-13.1.9-19.7,3c-44.7,13.6-63.8,67.4-79.3,110.2-53.7,147.7,34.9,234.9-17.6,348.2-26.8,57.8-88,117.5-136.4,117.5s-8.7-.5-12.9-1.5c-106-26.3-176.6-416.3,0-646.7,31-40.4,102.8-135.9,202.8-138.6,1.4,0,2.9,0,4.3,0,124.6,0,212.9,144.9,276.7,144.9s12.3-1.4,18.2-4.5c38-20.2,35.5-95.8,35.3-101.4-2.4-54.4-35.4-91.5-48.5-105.8-54.2-59.1-112.6-51.1-123.4-88.2-5.5-18.8,1.1-49.4,57.9-100.7M2579,67.7l-14.9,13.4c-30,27.1-50.2,51.6-61.6,74.9-11.6,23.7-14.4,46.5-8.2,67.7,5.1,17.3,15.7,31.7,31.5,42.8,10.9,7.6,22.7,12.8,35.3,18.4,21.6,9.5,43.9,19.3,65.8,43.2,9.8,10.7,36,39.2,37.7,79.8,0,.7.7,17.7-2.6,35.8-3.3,18.2-8.6,25.6-10.5,27.3-1.9-.2-7.9-1.7-20.4-9.7-13.6-8.7-29.5-21.8-46.4-35.6-26-21.2-55.4-45.3-88.8-64.4-41.3-23.7-80.7-35.2-120.4-35.2s-3.6,0-5.4,0c-118.1,3.2-198.6,108.1-232.9,153l-1.3,1.7c-78,101.7-104.2,221-112.4,303.1-9.9,98.8.4,200.9,28.1,280.1,25.5,72.8,62.5,117.1,107,128.1,7.3,1.8,14.9,2.7,22.7,2.7,41.9,0,79.5-25.9,103.7-47.6,28.8-25.8,54.3-60,69.9-93.7,14.1-30.4,21-62,21.2-96.7.1-29.3-4.5-57.4-8.9-84.7-8.8-53.8-17.1-104.6,6.7-170.1l.6-1.5c12.3-33.9,27.6-76,52.2-83.5,2.6-.8,5.1-1.2,7.8-1.2,19.3,0,45.9,20.4,74,42,21.1,16.2,43,33,68,46.5,31.3,16.9,61.2,25.2,91.6,25.2s10-.2,14.9-.7c26.6-2.4,52.7-11.2,77.6-26.1,20.8-12.5,40.7-29.3,59.1-50,29.5-33.1,55.1-76.3,70.1-118.5,24.4-68.4,23.6-143.5-2.6-217.3-22.8-64.4-63.6-123.6-114.9-166.6-28.6-24-61.2-43.4-96.7-57.7-24.4-9.8-50.2-17.1-76.8-21.8l-19.7-3.5h0Z"/>
    </g>
    <path d="M2168.4,1152.5c-105.9-26.3-172-411.6,0-646.7,38.4-52.5,80.5-86.2,105.2-104.1,47,58.8,94,117.6,141.1,176.3-23.8,21.1-58.2,57.2-79.3,110.2-53.7,134.7,36.1,232.2-17.6,348.2-29.2,63-99.3,128.3-149.3,116Z"/>
    <path class="cls-7" d="M2307.4,947.2c0,410.3-383.3,478.6-856.6,478.6s-857.6-68.3-857.6-478.6,384.3-635.7,857.6-635.7,856.6,225.4,856.6,635.7Z"/>
    <path class="cls-4" d="M660.8,1200.3c-15.1-32.9-30.3-65.8-45.4-98.7-39.7,8.8-94,16.4-158.1,12.6-83.2-5-149.4-27.2-192.2-45.6,48.7-105.7,182.6-358.7,474.6-547.9,300.5-194.6,595.3-209.5,711.1-209.2,115.9-4.7,372.7.7,644.1,150.3,353.9,195,499.6,506.7,541.6,606.9-35.2,17.3-85.6,37.1-148.6,47.1-87.4,13.9-160,2.6-204.7-8-8.9,25-17.7,50-26.6,75l-805.8,243.1-737.3-128.5c-17.6-32.3-35.1-64.7-52.7-97Z"/>
    <path class="cls-7" d="M1261.2,319.8c-231.2,36.6-397.1,125.4-470.5,169-316.1,187.8-467.3,458.5-525.6,579.8,40.9,17.1,241.9,96.6,442.9,0,73.1-35.1,124.2-83,157.1-120.9,387.9-7.3,775.9-14.6,1163.8-21.9,28.4,40.6,87,111.8,185.7,157.1,199.4,91.6,392.7.1,421.9-14.3-44.4-97.7-244-508.4-707.6-685.7-50.3-19.3-319.5-118.2-667.7-63.1Z"/>
    <path class="cls-3" d="M1428.5,688.4c0,183.8-144.5,273.2-438.6,314.5-221.6,31.1-308.3-43.2-308.3-227.1s193.9-340.6,417.7-340.6,329.3,69.4,329.3,253.2Z"/>
    <path class="cls-3" d="M1522,688.4c0,183.8,144.5,273.2,438.6,314.5,221.6,31.1,308.3-43.2,308.3-227.1,0-183.8-185.7-340.6-409.4-340.6s-337.6,69.4-337.6,253.2Z"/>
    <ellipse class="cls-7" cx="1099.2" cy="821" rx="385.7" ry="337.2"/>
    <ellipse class="cls-7" cx="1836.5" cy="821" rx="385.7" ry="337.2"/>
    <path class="cls-5" d="M972.6,791.2c0,76.1-78.5,102.5-145.5,102.5s-141.1-17.6-145.5-102.5c-3.8-73.3,69.7-20.9,136.7-20.9s154.3-61.4,154.3,20.9Z"/>
    <path class="cls-5" d="M1889.4,770.3c0,76.1-78.5,102.5-145.5,102.5s-141.1-17.6-145.5-102.5c-3.8-73.3,69.7-20.9,136.7-20.9s154.3-61.4,154.3,20.9Z"/>
    <path class="cls-5" d="M1105.8,793.5c0,29.9-7.4,48.4-44.3,48.4s-45.9-14.3-45.9-39.8,8.9-68.3,45.9-68.3,44.3,22.8,44.3,59.8Z"/>
    <path class="cls-5" d="M2018.8,782.6c0,29.9-7.4,48.4-44.3,48.4s-45.9-14.3-45.9-39.8,8.9-68.3,45.9-68.3,44.3,22.8,44.3,59.8Z"/>
    <path class="cls-2" d="M1372,652.1c3.8-20.8,154.8-17.4,157.6,3.3.9,6.9-15,10.9-45.9,37.9-14.5,12.7-25.3,24.3-32.3,32.3-7.1-7.9-18-19.4-32.3-32.3-32.9-29.6-48.3-34.4-47-41.2Z"/>
    <path class="cls-6" d="M1538.1,831c-36.4-8.2-68.4-28.7-95.3-53.4-8.4-7.8-16.1-16.1-23.4-24.9l65.2-1.7c-13.6,17.4-29,33-46.8,46.6-19,14.3-40.5,26.9-64.1,33.3,0,0-3.7-2.8-3.7-2.8,2.3-3.4,7.1-10,9.4-13.4,22.3-31.3,48.4-65.9,71.6-96.6,22.6,26.4,47.3,56,69.3,83.1,6,7.5,15.5,19.2,21.3,26.7,0,0-3.5,3-3.5,3h0Z"/>
    <polygon class="cls-8" points="422.8 1231.2 43.7 1491.3 422.8 1755.8 422.8 1231.2"/>
    <path class="cls-8" d="M2459.3,1270.9h418.8c9,42.8,26,154.2-30.9,268.9-68.8,138.9-218.5,227.4-387.9,233.6v-502.5Z"/>
    <g>
      <path class="cls-7" d="M393,2477.7v-92.4c5.1.1,10.1.2,15.2.2,97.5,0,191.6-25.7,265.2-72.2,70.7-44.8,116.2-105.2,124.9-165.6,8.4-58.4-16.1-126.8-67.2-187.5-78.5-93.3-200.7-151.3-338.1-161.5v-618.7l2123,.8v697.1c-120.4,13.8-232,48-316.4,97.4-87.7,51.3-136.4,113.2-133.6,169.8,1.4,28.8,16,57.5,43.2,85.1,24.7,25,58.7,48,100.8,68.1,83.6,39.9,191.4,64.6,305.9,70.4v109H393Z"/>
      <path d="M420.5,1207.5l2068,.8v645.4c-114.8,15.9-220.9,50-302.8,97.9-44.5,26-79.8,54.7-105,85.4-29.4,35.7-44,73.5-42.2,109.5,3.3,66.3,60,129,159.7,176.7,80.4,38.4,181.9,63.2,290.3,71.4v55.7H420.5v-37.3c98.2-2.1,192.8-29,267.6-76.4,77.5-49.1,127.6-116.5,137.4-185,9.5-66.2-17.2-142.4-73.4-209.1-78.4-93.1-197.2-153.1-331.6-168.8v-566.1M365.5,1152.5v672.3c263.9,7.5,423.4,195.3,405.6,318.9-15,104.5-163.8,214.3-362.9,214.3s-28.2-.5-42.7-1.7v148.8h2178v-163c-261.8-6.2-445.7-110.8-450.1-198.4-4.4-89.3,174.5-216.2,450.1-241v-749.4l-2178-.8h0Z"/>
    </g>
    <g>
      <path class="cls-9" d="M1261.7,202.6c-73.3,0-130.7-40-130.7-91s57.4-91,130.7-91,130.7,40,130.7,91-57.4,91-130.7,91Z"/>
      <path class="cls-6" d="M1261.7,41c60.9,0,110.2,31.6,110.2,70.5s-49.3,70.5-110.2,70.5-110.2-31.6-110.2-70.5,49.3-70.5,110.2-70.5M1261.7,0c-37.2,0-72.7,9.6-100,27.1-15,9.6-27,21.1-35.7,34.3-10.1,15.3-15.5,32.6-15.5,50.1s5.3,34.8,15.5,50.1c8.7,13.2,20.7,24.8,35.7,34.3,27.3,17.5,62.9,27.1,100,27.1s72.7-9.6,100-27.1c15-9.6,27-21.1,35.7-34.3,10.1-15.3,15.5-32.6,15.5-50.1s-5.3-34.8-15.5-50.1c-8.7-13.2-20.7-24.8-35.7-34.3-27.3-17.5-62.9-27.1-100-27.1h0Z"/>
    </g>
    <g>
      <path class="cls-9" d="M1632.2,202.6c-73.3,0-130.7-40-130.7-91s57.4-91,130.7-91,130.7,40,130.7,91-57.4,91-130.7,91Z"/>
      <path class="cls-6" d="M1632.2,41c60.9,0,110.2,31.6,110.2,70.5s-49.3,70.5-110.2,70.5-110.2-31.6-110.2-70.5,49.3-70.5,110.2-70.5M1632.2,0c-37.2,0-72.7,9.6-100,27.1-15,9.6-27,21.1-35.7,34.3-10.1,15.3-15.5,32.6-15.5,50.1s5.3,34.8,15.5,50.1c8.7,13.2,20.7,24.8,35.7,34.3,27.3,17.5,62.9,27.1,100,27.1s72.7-9.6,100-27.1c15-9.6,27-21.1,35.7-34.3,10.1-15.3,15.5-32.6,15.5-50.1s-5.3-34.8-15.5-50.1c-8.7-13.2-20.7-24.8-35.7-34.3-27.3-17.5-62.9-27.1-100-27.1h0Z"/>
    </g>
  </g>
  <g id="Camada_2" data-name="Camada 2">
    <path class="cls-1" d="M635.9,1152.6h-270.4c0,0,0,113.9,0,113.9l-321.8,224.8,321.8,224.5v109c263.9,7.5,423.4,195.3,405.6,318.9-16.1,111.8-185.4,229.8-405.6,212.6v148.8h2178v-163c-261.8-6.2-445.7-110.8-450.1-198.4-4.4-89.3,174.5-216.2,450.1-241v-139.4c25.4-4,175.8-30.2,273.2-172.3,98.5-143.6,67-295.3,61.5-320.1h-334.6v-117.6c-78.7,0-157.4,0-236.1,0"/>
  </g>
</svg>